<?xml version="1.0" encoding="utf-8"?>
<!-- Generator: Adobe Illustrator 21.0.2, SVG Export Plug-In . SVG Version: 6.00 Build 0)  -->
<svg version="1.1" id="Layer_1" xmlns="http://www.w3.org/2000/svg" xmlns:xlink="http://www.w3.org/1999/xlink" x="0px" y="0px"
	 viewBox="0 0 176.6 50.3" style="enable-background:new 0 0 176.6 50.3;" xml:space="preserve">
<style type="text/css">
	.st0{fill:#231F20;}
	.st1{fill:#EF3B2D;}
	.st2{clip-path:url(#XMLID_2_);fill:#231F20;}
	.st3{clip-path:url(#XMLID_3_);fill:#231F20;}
	.st4{clip-path:url(#XMLID_3_);fill-rule:evenodd;clip-rule:evenodd;fill:#EF3B2D;}
	.st5{clip-path:url(#XMLID_3_);fill:#EF3B2D;}
	.st6{fill:#FFFFFF;}
	.st7{fill-rule:evenodd;clip-rule:evenodd;fill:#FFFFFF;}
	.st8{fill:#DA1C5C;}
</style>
<g id="XMLID_3010_">
	<path id="XMLID_3538_" class="st0" d="M74.3,24.3c-0.3-1.6-1.1-2.8-2.2-3.8c-1.2-1-2.5-1.5-4.2-1.5c-1.6,0-3,0.5-4.2,1.4
		c-1.2,1-2,2.3-2.3,3.9H74.3L74.3,24.3z M76.5,26.3H61.4c0.2,1.7,0.9,3.1,2.2,4.2c1.3,1.1,2.7,1.6,4.4,1.6c2.7,0,4.5-1.3,5.7-3.7
		h2.4c-0.6,1.8-1.7,3.2-3.2,4.3c-1.5,1.1-3.2,1.6-5,1.6c-2.3,0-4.3-0.8-6.1-2.5c-1.8-1.7-2.7-3.8-2.7-6.1c-0.1-2.5,0.8-4.7,2.7-6.5
		c1.8-1.8,4-2.7,6.5-2.5c2.2,0.1,4.2,1.1,5.8,2.8c1.6,1.7,2.4,3.6,2.4,5.7V26.3L76.5,26.3z"/>
	<path id="XMLID_3535_" class="st1" d="M93.5,25.4c0-1.8-0.7-3.3-1.9-4.6c-1.3-1.3-2.8-1.9-4.6-1.9c-1.7,0-3.2,0.6-4.4,1.9
		c-1.2,1.3-1.9,2.8-1.9,4.5c-0.1,1.9,0.6,3.5,1.9,4.9c1.3,1.4,2.9,2,4.7,1.9c1.7-0.1,3.2-0.8,4.4-2.1C92.9,28.7,93.5,27.2,93.5,25.4
		L93.5,25.4z M95.7,25.6c0,2.4-0.8,4.4-2.4,6.1c-1.6,1.7-3.6,2.6-6,2.7c-2.4,0.1-4.5-0.8-6.3-2.5c-1.8-1.8-2.7-3.9-2.6-6.3v-0.1
		V11.2h2.2v8.5c1.6-1.9,3.7-2.9,6.2-3c2.4-0.1,4.5,0.7,6.2,2.5C94.9,21,95.7,23.1,95.7,25.6L95.7,25.6z"/>
	<path id="XMLID_3532_" class="st1" d="M112.7,25.4c0-1.8-0.7-3.3-1.9-4.5c-1.2-1.3-2.7-1.9-4.4-1.9c-1.8,0-3.3,0.6-4.6,1.9
		c-1.3,1.3-1.9,2.8-1.9,4.6c0,1.8,0.5,3.3,1.8,4.7c1.2,1.3,2.7,2,4.4,2.1c1.8,0.1,3.4-0.6,4.7-1.9C112.1,28.9,112.7,27.2,112.7,25.4
		L112.7,25.4z M114.9,25.5v0.1V34h-2.2v-2.6c-1.8,2.1-4,3.1-6.7,3c-2.3-0.1-4.3-1-5.9-2.7c-1.6-1.7-2.4-3.7-2.4-6.1
		c0-2.5,0.9-4.6,2.6-6.3c1.7-1.8,3.8-2.6,6.3-2.5c2.4,0.1,4.4,1,6,2.7C114.2,21.2,115,23.2,114.9,25.5L114.9,25.5z"/>
	<path id="XMLID_3529_" class="st1" d="M132.3,25.6c0.1-1.9-0.6-3.5-1.9-4.8c-1.3-1.4-2.9-2-4.7-2c-1.7,0.1-3.2,0.8-4.4,2.1
		c-1.2,1.3-1.8,2.9-1.8,4.7c0,1.8,0.7,3.3,1.9,4.6c1.3,1.3,2.8,1.9,4.5,1.9c1.7,0,3.2-0.6,4.4-1.9C131.7,28.9,132.3,27.3,132.3,25.6
		L132.3,25.6z M134.6,25.4v7.7c0,2.1-0.9,3.9-2.6,5.3c-1.7,1.4-3.7,2.1-6,2c-2-0.1-3.7-0.7-5.2-1.8c-1.4-1.1-2.3-2.5-2.8-4.2h2.2
		c0.3,1.2,1.1,2.2,2.2,3c1.2,0.8,2.4,1.3,3.8,1.3c1.6,0,3.1-0.6,4.3-1.7c1.2-1.1,1.8-2.5,1.8-4.1v-1.6c-1.6,1.9-3.7,2.8-6.2,2.9
		c-2.4,0.1-4.5-0.8-6.2-2.5c-1.7-1.8-2.6-3.9-2.6-6.3c0-2.4,0.8-4.4,2.4-6.1c1.6-1.7,3.6-2.6,5.9-2.7c2.4-0.1,4.5,0.8,6.3,2.5
		C133.7,20.9,134.6,23,134.6,25.4L134.6,25.4z"/>
	<polygon id="XMLID_3528_" class="st0" points="139.2,33.1 136.9,33.1 136.9,30.6 139.2,30.6 139.2,33.1 	"/>
	<g id="XMLID_3520_">
		<defs>
			<rect id="XMLID_3521_" width="176.6" height="50.3"/>
		</defs>
		<clipPath id="XMLID_2_">
			<use xlink:href="#XMLID_3521_"  style="overflow:visible;"/>
		</clipPath>
		<path id="XMLID_3525_" class="st2" d="M155.2,25.4c0-1.8-0.7-3.3-1.9-4.6c-1.3-1.3-2.8-1.9-4.6-1.9c-1.7,0-3.2,0.6-4.4,1.9
			c-1.2,1.3-1.9,2.8-1.9,4.5c-0.1,1.9,0.6,3.5,1.9,4.9c1.3,1.4,2.9,2,4.7,1.9c1.7-0.1,3.2-0.8,4.4-2.1
			C154.6,28.7,155.2,27.2,155.2,25.4L155.2,25.4z M157.4,25.6c0,2.4-0.8,4.4-2.4,6.1c-1.6,1.7-3.6,2.6-6,2.7
			c-2.4,0.1-4.5-0.8-6.3-2.5c-1.8-1.8-2.7-3.9-2.6-6.3v-0.1V11.2h2.2v8.5c1.6-1.9,3.7-2.9,6.2-3c2.4-0.1,4.5,0.7,6.2,2.5
			C156.5,21,157.4,23.1,157.4,25.6L157.4,25.6z"/>
		<path id="XMLID_3522_" class="st2" d="M174.4,25.6c0.1-1.9-0.6-3.5-1.9-4.8c-1.3-1.4-2.9-2-4.7-2c-1.7,0.1-3.2,0.8-4.4,2.1
			c-1.2,1.3-1.8,2.9-1.8,4.7c0,1.8,0.7,3.3,1.9,4.6c1.3,1.3,2.8,1.9,4.5,1.9c1.7,0,3.2-0.6,4.4-1.9
			C173.7,28.9,174.3,27.3,174.4,25.6L174.4,25.6z M176.6,25.4v7.7c0,2.1-0.9,3.9-2.6,5.3c-1.7,1.4-3.7,2.1-6,2
			c-2-0.1-3.7-0.7-5.2-1.8c-1.4-1.1-2.3-2.5-2.8-4.2h2.2c0.3,1.2,1.1,2.2,2.2,3c1.2,0.8,2.4,1.3,3.8,1.3c1.6,0,3.1-0.6,4.3-1.7
			c1.2-1.1,1.8-2.5,1.8-4.1v-1.6c-1.6,1.9-3.7,2.8-6.2,2.9c-2.4,0.1-4.5-0.8-6.2-2.5c-1.7-1.8-2.6-3.9-2.6-6.3
			c0-2.4,0.8-4.4,2.4-6.1c1.6-1.7,3.6-2.6,5.9-2.7c2.4-0.1,4.5,0.8,6.3,2.5C175.8,20.9,176.6,23,176.6,25.4L176.6,25.4z"/>
	</g>
	<path id="XMLID_3517_" class="st1" d="M63,46.4c0-0.5-0.2-0.9-0.5-1.3c-0.3-0.3-0.8-0.5-1.3-0.5c-0.5,0-0.9,0.2-1.3,0.5
		c-0.3,0.3-0.5,0.8-0.5,1.3c0,0.5,0.2,0.9,0.5,1.3c0.3,0.3,0.7,0.5,1.3,0.5c0.5,0,0.9-0.2,1.3-0.5C62.9,47.4,63,46.9,63,46.4
		L63,46.4z M63.7,46.4c0,0.7-0.2,1.2-0.7,1.7c-0.5,0.5-1,0.7-1.7,0.7c-0.7,0-1.2-0.2-1.7-0.7c-0.5-0.5-0.7-1-0.7-1.7
		c0-0.7,0.2-1.2,0.7-1.7c0.4-0.5,1-0.7,1.7-0.7c0.7,0,1.2,0.2,1.7,0.7C63.4,45.2,63.7,45.7,63.7,46.4L63.7,46.4z"/>
	<polygon id="XMLID_3516_" class="st1" points="68.3,48.7 67.7,48.7 67.7,46.6 65.1,46.6 65.1,48.7 64.5,48.7 64.5,44.2 65.1,44.2 
		65.1,46.1 67.7,46.1 67.7,44.2 68.3,44.2 68.3,48.7 	"/>
	<polygon id="XMLID_3515_" class="st1" points="73.3,48.7 72.7,48.7 71.1,44.9 69.5,48.7 68.8,48.7 70.8,44.2 71.4,44.2 73.3,48.7 	
		"/>
	<path id="XMLID_3512_" class="st1" d="M77.9,46.4c0-0.5-0.2-0.9-0.5-1.3c-0.3-0.4-0.8-0.5-1.3-0.5c-0.5,0-0.9,0.2-1.3,0.5
		c-0.3,0.3-0.5,0.8-0.5,1.3c0,0.5,0.2,0.9,0.5,1.3c0.4,0.3,0.8,0.5,1.3,0.5c0.5,0,0.9-0.2,1.3-0.5C77.8,47.4,77.9,46.9,77.9,46.4
		L77.9,46.4z M78.5,48.7h-0.6v-0.8c-0.2,0.3-0.5,0.6-0.9,0.8c-0.3,0.1-0.6,0.2-0.9,0.2c-0.7,0-1.3-0.2-1.7-0.7
		c-0.5-0.4-0.7-1-0.7-1.7c0-0.6,0.2-1.1,0.6-1.6c0.5-0.5,1.1-0.8,1.8-0.8c0.4,0,0.8,0.1,1.1,0.2c0.3,0.2,0.5,0.4,0.7,0.7l0-0.8h0.6
		V48.7L78.5,48.7z"/>
	<path id="XMLID_3509_" class="st1" d="M82.8,42.6c0,0.3-0.2,0.5-0.3,0.7c-0.2,0.2-0.5,0.3-0.9,0.3c-0.4,0-0.7-0.1-0.9-0.3
		c-0.2-0.2-0.3-0.4-0.3-0.7h0.5c0,0.2,0.1,0.3,0.3,0.4c0.1,0.1,0.3,0.1,0.5,0.1c0.2,0,0.3,0,0.5-0.1c0.1-0.1,0.2-0.2,0.3-0.4H82.8
		L82.8,42.6z M83.5,48.7h-0.6V45l-2.7,3.7h-0.6v-4.5h0.6v3.6l2.7-3.6h0.6V48.7L83.5,48.7z"/>
	<polygon id="XMLID_3508_" class="st1" points="88.3,48.7 87.7,48.7 87.7,46.6 85.1,46.6 85.1,48.7 84.5,48.7 84.5,44.2 85.1,44.2 
		85.1,46.1 87.7,46.1 87.7,44.2 88.3,44.2 88.3,48.7 	"/>
	<path id="XMLID_3507_" class="st0" d="M95.7,45.5H95c-0.1-0.3-0.4-0.5-0.6-0.7c-0.3-0.2-0.6-0.2-0.9-0.2c-0.5,0-1,0.2-1.3,0.5
		c-0.3,0.3-0.5,0.8-0.5,1.3c0,0.5,0.2,0.9,0.5,1.3c0.4,0.4,0.8,0.5,1.3,0.5c0.3,0,0.6-0.1,0.9-0.2c0.3-0.2,0.5-0.4,0.6-0.6h0.7
		c-0.2,0.4-0.4,0.7-0.7,1c-0.4,0.3-0.9,0.5-1.5,0.5c-0.7,0-1.3-0.2-1.8-0.7c-0.4-0.5-0.6-1-0.6-1.6c0-0.6,0.2-1.1,0.6-1.6
		c0.5-0.5,1.1-0.8,1.8-0.8c0.5,0,1,0.1,1.4,0.4C95.2,44.7,95.5,45.1,95.7,45.5L95.7,45.5z"/>
	<polygon id="XMLID_3506_" class="st0" points="100.4,44.2 97.8,50.3 97.2,50.3 97.9,48.5 96.1,44.2 96.9,44.2 98.3,47.7 99.8,44.2 
		100.4,44.2 	"/>
	<polygon id="XMLID_3505_" class="st0" points="104.8,48.7 104.1,48.7 104.1,44.7 101.6,44.7 101.6,48.7 101,48.7 101,44.2 
		104.8,44.2 104.8,48.7 	"/>
	<path id="XMLID_3502_" class="st0" d="M109.6,46.1c-0.1-0.5-0.3-0.8-0.6-1.1c-0.3-0.3-0.7-0.4-1.1-0.4c-0.4,0-0.8,0.1-1.1,0.4
		c-0.3,0.3-0.5,0.6-0.6,1.1H109.6L109.6,46.1z M110.3,46.6h-4c0,0.4,0.2,0.8,0.5,1.1c0.3,0.3,0.7,0.5,1.2,0.5c0.3,0,0.7-0.1,0.9-0.3
		c0.3-0.2,0.5-0.4,0.6-0.7h0.6c-0.2,0.5-0.5,0.9-0.9,1.2c-0.4,0.3-0.8,0.4-1.4,0.4c-0.7,0-1.2-0.2-1.7-0.7c-0.4-0.4-0.7-1-0.7-1.7
		c0-0.6,0.2-1.1,0.6-1.6c0.4-0.5,1-0.8,1.8-0.8c0.8,0,1.4,0.3,1.8,0.9C110.1,45.4,110.3,46,110.3,46.6L110.3,46.6z"/>
	<path id="XMLID_3499_" class="st0" d="M115.3,46.4c0-0.5-0.2-1-0.5-1.3c-0.3-0.3-0.8-0.5-1.3-0.5c-0.5,0-0.9,0.2-1.3,0.5
		c-0.3,0.4-0.5,0.8-0.5,1.3c0,0.5,0.2,0.9,0.5,1.3c0.3,0.3,0.8,0.5,1.3,0.5c0.5,0,0.9-0.2,1.3-0.5C115.1,47.4,115.3,46.9,115.3,46.4
		L115.3,46.4z M115.9,46.4c0,0.7-0.2,1.2-0.7,1.7c-0.5,0.4-1,0.7-1.7,0.7c-0.5,0-0.9-0.1-1.2-0.4c-0.2-0.1-0.4-0.3-0.5-0.6l0,2.4
		h-0.6v-6.1h0.6v0.8c0.3-0.3,0.6-0.6,0.9-0.7c0.3-0.1,0.5-0.1,0.8-0.1c0.7,0,1.3,0.3,1.8,0.8C115.7,45.3,115.9,45.8,115.9,46.4
		L115.9,46.4z"/>
	<polygon id="XMLID_3498_" class="st0" points="121.7,48.7 121.1,48.7 121.1,44.8 119.5,48.7 119,48.7 117.4,44.8 117.4,48.7 
		116.8,48.7 116.8,44.2 117.7,44.2 119.3,47.9 120.8,44.2 121.7,44.2 121.7,48.7 	"/>
	<path id="XMLID_3495_" class="st0" d="M126.8,46.4c0-0.5-0.2-0.9-0.5-1.3c-0.3-0.4-0.8-0.5-1.3-0.5c-0.5,0-0.9,0.2-1.3,0.5
		c-0.3,0.3-0.5,0.8-0.5,1.3c0,0.5,0.2,0.9,0.5,1.3c0.4,0.3,0.8,0.5,1.3,0.5c0.5,0,0.9-0.2,1.3-0.5C126.6,47.4,126.8,46.9,126.8,46.4
		L126.8,46.4z M127.3,48.7h-0.6v-0.8c-0.2,0.3-0.5,0.6-0.8,0.8c-0.3,0.1-0.6,0.2-0.9,0.2c-0.7,0-1.3-0.2-1.7-0.7
		c-0.5-0.4-0.7-1-0.7-1.7c0-0.6,0.2-1.1,0.6-1.6c0.5-0.5,1.1-0.8,1.8-0.8c0.4,0,0.8,0.1,1.1,0.2c0.3,0.2,0.5,0.4,0.7,0.7l0-0.8h0.6
		V48.7L127.3,48.7z"/>
	<path id="XMLID_3492_" class="st0" d="M132.5,46.4c0-0.5-0.2-1-0.5-1.3c-0.3-0.3-0.8-0.5-1.3-0.5c-0.5,0-0.9,0.2-1.3,0.5
		c-0.3,0.4-0.5,0.8-0.5,1.3c0,0.5,0.2,0.9,0.5,1.3c0.3,0.3,0.8,0.5,1.3,0.5c0.5,0,0.9-0.2,1.3-0.5C132.4,47.4,132.5,46.9,132.5,46.4
		L132.5,46.4z M133.2,46.4c0,0.7-0.2,1.2-0.7,1.7c-0.5,0.4-1,0.7-1.7,0.7c-0.5,0-0.9-0.1-1.2-0.4c-0.2-0.1-0.4-0.3-0.5-0.6l0,2.4
		h-0.6v-6.1h0.6v0.8c0.3-0.3,0.6-0.6,0.9-0.7c0.3-0.1,0.5-0.1,0.8-0.1c0.7,0,1.3,0.3,1.8,0.8C132.9,45.3,133.2,45.8,133.2,46.4
		L133.2,46.4z"/>
	<path id="XMLID_3489_" class="st0" d="M137.6,48.7h-0.8l-1.8-2.3l1.8-2.2h0.7l-1.7,2.2L137.6,48.7L137.6,48.7z M134.6,48.7H134
		v-4.5h0.6V48.7L134.6,48.7z"/>
	<path id="XMLID_3486_" class="st0" d="M142,46.1c-0.1-0.5-0.3-0.8-0.6-1.1c-0.3-0.3-0.7-0.4-1.1-0.4c-0.4,0-0.8,0.1-1.1,0.4
		c-0.3,0.3-0.5,0.6-0.6,1.1H142L142,46.1z M142.6,46.6h-4c0,0.4,0.2,0.8,0.5,1.1c0.3,0.3,0.7,0.5,1.2,0.5c0.3,0,0.7-0.1,0.9-0.3
		c0.3-0.2,0.5-0.4,0.6-0.7h0.6c-0.2,0.5-0.5,0.9-0.9,1.2c-0.4,0.3-0.8,0.4-1.4,0.4c-0.7,0-1.2-0.2-1.7-0.7c-0.4-0.4-0.7-1-0.7-1.7
		c0-0.6,0.2-1.1,0.6-1.6c0.4-0.5,1-0.8,1.8-0.8c0.8,0,1.4,0.3,1.8,0.9C142.5,45.4,142.6,46,142.6,46.6L142.6,46.6z"/>
	<polygon id="XMLID_3485_" class="st0" points="146,44.7 144.9,44.7 144.9,48.7 144.3,48.7 144.3,44.7 143.1,44.7 143.1,44.2 
		146,44.2 146,44.7 	"/>
	<path id="XMLID_3482_" class="st0" d="M150.1,47.3c0-0.2-0.1-0.4-0.2-0.6c-0.2-0.2-0.4-0.3-0.7-0.3h-1.2v1.7h1.2
		c0.3,0,0.5-0.1,0.7-0.3C150,47.7,150.1,47.5,150.1,47.3L150.1,47.3z M150.7,47.3c0,0.3-0.1,0.6-0.3,0.9c-0.3,0.3-0.7,0.5-1.2,0.5
		h-1.8v-4h-1.1v-0.6h1.7v1.7h1.2c0.6,0,1,0.2,1.3,0.5C150.6,46.7,150.7,47,150.7,47.3L150.7,47.3z"/>
	<g id="XMLID_3477_">
		<defs>
			<rect id="XMLID_3478_" width="176.6" height="50.3"/>
		</defs>
		<clipPath id="XMLID_3_">
			<use xlink:href="#XMLID_3478_"  style="overflow:visible;"/>
		</clipPath>
		<polygon id="XMLID_3481_" class="st3" points="154,44.7 152.8,44.7 152.8,48.7 152.2,48.7 152.2,44.7 151,44.7 151,44.2 154,44.2 
			154,44.7 		"/>
		<path id="XMLID_3480_" class="st4" d="M39.9,14.5c0,8-6.5,14.5-14.5,14.5c-8,0-14.5-6.5-14.5-14.5c0-8,6.5-14.5,14.5-14.5
			C33.4,0,39.9,6.5,39.9,14.5L39.9,14.5z"/>
		<path id="XMLID_3479_" class="st5" d="M43.8,44.2c-0.7,2.4-3.3,4.3-5.8,4.3H12.5c-2.5,0-5.1-2-5.7-4.4L0.1,18.9
			c-0.7-2.4,0.8-4.4,3.3-4.4h44.1c2.5,0,3.9,2,3.2,4.3L43.8,44.2L43.8,44.2z"/>
	</g>
	<path id="XMLID_3476_" class="st6" d="M24,26.1c0.1,0.6,0,1.4-0.8,1.7C22.7,28,22,27.9,22,27.9c-0.5,0-1,0.2-1.4,0.5
		c-0.4,0.4-1.1,0.5-1.5,0.3c-0.4-0.2-0.7-0.6-0.9-1C18,27.4,18,27.2,18,27.2s0-0.1-0.1-0.4c0,0.1,0,0.2,0,0.2
		c0.1,0.4,0.1,0.6,0.1,0.6s0,0.2,0.2,0.6c0.2,0.4,0.5,0.8,0.9,1c0.4,0.2,1.1,0,1.5-0.3c0.4-0.4,1-0.5,1.4-0.5c0,0,0.7,0.1,1.2-0.1
		C24.3,27.9,24.1,26.6,24,26.1L24,26.1z"/>
	<path id="XMLID_3475_" class="st6" d="M18.2,27.4c0.2,0.4,0.5,0.8,0.9,1c0.4,0.2,1.1,0,1.5-0.3c0.4-0.4,1-0.5,1.4-0.5
		c0,0,0.7,0.1,1.2-0.1c0.8-0.3,0.9-1.1,0.8-1.7c0-0.1,0-0.2,0-0.2s-0.6-1.9-1.8-1.6c-0.5,0.1-1.1,0.6-1.1,0.6
		c-0.4,0.3-1,0.4-1.5,0.3c-0.5-0.1-1.2,0.1-1.4,0.5c-0.2,0.3-0.3,0.7-0.3,1.1c0.1,0.3,0.1,0.4,0.1,0.4S18,27,18.2,27.4L18.2,27.4z"
		/>
	<path id="XMLID_3474_" class="st6" d="M23.9,26.2c0,0.6,0,1.4-0.8,1.6c-0.5,0.2-1.2,0.1-1.2,0.1c-0.5,0-1,0.2-1.4,0.5
		c-0.4,0.3-1,0.5-1.4,0.3c-0.4-0.2-0.7-0.5-0.9-0.9C18,27.5,18,27.3,18,27.3s0-0.1-0.1-0.4c0,0.1,0,0.1,0,0.2
		c0.1,0.4,0.1,0.6,0.1,0.6s0,0.2,0.2,0.5c0.2,0.4,0.4,0.8,0.9,0.9c0.4,0.2,1.1,0,1.5-0.3c0.4-0.3,0.9-0.5,1.4-0.5
		c0,0,0.7,0.1,1.2-0.1C24.1,27.9,24,26.7,23.9,26.2L23.9,26.2z"/>
	<path id="XMLID_3473_" class="st6" d="M18.2,27.5c0.2,0.4,0.4,0.8,0.9,0.9c0.4,0.2,1.1,0,1.4-0.3c0.4-0.3,0.9-0.5,1.4-0.5
		c0,0,0.7,0.1,1.2-0.1c0.8-0.2,0.8-1,0.8-1.6c0-0.1,0-0.2,0-0.2s-0.5-1.8-1.8-1.5c-0.5,0.1-1,0.5-1,0.5c-0.4,0.2-0.9,0.4-1.4,0.3
		c-0.5-0.1-1.1,0.1-1.4,0.5c-0.2,0.3-0.3,0.7-0.3,1C18,26.9,18,27,18,27S18,27.2,18.2,27.5L18.2,27.5z"/>
	<path id="XMLID_3457_" class="st6" d="M26.3,26c-0.2,0-0.4-0.2-0.4-0.4c0-0.2,0.2-0.4,0.4-0.4c0.2,0,0.4,0.2,0.4,0.4
		C26.6,25.9,26.5,26,26.3,26L26.3,26z M25,23.6c0-0.3,0.3-0.6,0.6-0.6c0.3,0,0.6,0.3,0.6,0.6c0,0.3-0.3,0.6-0.6,0.6
		C25.2,24.2,25,23.9,25,23.6L25,23.6z M24.3,21.2c0-0.2,0.2-0.4,0.4-0.4c0.2,0,0.4,0.2,0.4,0.4c0,0.2-0.2,0.4-0.4,0.4
		C24.5,21.6,24.3,21.4,24.3,21.2L24.3,21.2z M25.9,19.7c0.1,0,0.2,0.1,0.2,0.2c0,0.1-0.1,0.2-0.2,0.2c-0.1,0-0.2-0.1-0.2-0.2
		C25.7,19.8,25.8,19.7,25.9,19.7L25.9,19.7z M26.6,21.6c0.2,0,0.3,0.1,0.3,0.3c0,0.2-0.1,0.3-0.3,0.3c-0.2,0-0.3-0.1-0.3-0.3
		C26.3,21.8,26.4,21.6,26.6,21.6L26.6,21.6z M27.5,19.4c0.5,0,0.9,0.4,0.9,0.9c0,0.5-0.4,0.9-0.9,0.9c-0.5,0-0.9-0.4-0.9-0.9
		C26.6,19.8,27,19.4,27.5,19.4L27.5,19.4z M28.8,17.7c0.3,0,0.5,0.2,0.5,0.5c0,0.3-0.2,0.5-0.5,0.5s-0.5-0.2-0.5-0.5
		C28.3,17.9,28.5,17.7,28.8,17.7L28.8,17.7z M29.9,19.2c0.4,0,0.7,0.3,0.7,0.7c0,0.4-0.3,0.7-0.7,0.7c-0.4,0-0.7-0.3-0.7-0.7
		C29.2,19.5,29.5,19.2,29.9,19.2L29.9,19.2z M29.9,21.9c-0.2,0-0.4-0.2-0.4-0.4c0-0.2,0.2-0.4,0.4-0.4c0.2,0,0.4,0.2,0.4,0.4
		C30.3,21.8,30.1,21.9,29.9,21.9L29.9,21.9z M28.7,22.9c-0.3,0-0.6-0.3-0.6-0.6c0-0.3,0.3-0.6,0.6-0.6c0.3,0,0.6,0.3,0.6,0.6
		C29.3,22.6,29,22.9,28.7,22.9L28.7,22.9z M27.6,24.2c-0.2,0-0.4-0.2-0.4-0.4c0-0.2,0.2-0.4,0.4-0.4c0.2,0,0.4,0.2,0.4,0.4
		C28,24,27.8,24.2,27.6,24.2L27.6,24.2z M31.5,20.4c0.4,0,0.6,0.3,0.6,0.6c0,0.4-0.3,0.6-0.6,0.6c-0.4,0-0.6-0.3-0.6-0.6
		C30.8,20.7,31.1,20.4,31.5,20.4L31.5,20.4z M31.7,19.1c0.2,0,0.3,0.1,0.3,0.3c0,0.2-0.1,0.3-0.3,0.3c-0.2,0-0.3-0.1-0.3-0.3
		C31.4,19.2,31.6,19.1,31.7,19.1L31.7,19.1z M33.4,21.6c0.2,0,0.3,0.1,0.3,0.3c0,0.2-0.1,0.3-0.3,0.3c-0.2,0-0.3-0.1-0.3-0.3
		C33.1,21.8,33.2,21.6,33.4,21.6L33.4,21.6z M27.7,24.9c0.4-0.4,1-1,1.7-1.4c0.5-0.3,0.9-0.5,1.4-0.5c0.2,0,0.5,0.1,0.6,0.2
		c0,0,0,0,0,0c0.4-0.2,0.7-0.3,1.1-0.3c0.2,0,0.5,0,0.7,0.1c0.1-0.1,0.4-0.1,0.7-0.1c0.1,0,0.1,0,0.1,0c0,0,0.1,0,0.2,0
		c0-0.2,0-0.3,0-0.5c0-2.9-2.3-5.2-5.2-5.2c-2.9,0-5.2,2.3-5.2,5.2c0,2,1.1,3.8,2.8,4.7c0-0.2,0.1-0.5,0.2-0.8
		C27,25.8,27.3,25.4,27.7,24.9L27.7,24.9z"/>
	<path id="XMLID_3456_" class="st7" d="M19.2,17.1c0.7,0,1.3,0,1.8,0.2c-0.5,0-1.1,0-1.4,0.3c0.3,0.8,0.6,0.7,0.7,1.3
		c-0.5-0.1-0.9-0.4-1.3-0.7c-0.1-0.1-0.3-0.3-0.4-0.3c-0.3,0-0.6,0.4-0.8,0.5c-0.3,0.2-0.4,0.4-0.7,0.6c0-0.6,0.5-0.9,0.7-1.3
		c-0.4-0.1-0.8,0.2-1.2,0.2c0.3-0.2,0.7-0.5,1.2-0.6c0.2,0,0.4,0,0.5-0.1c0.3-0.1,0.3-0.5,0.3-0.9C19,16,19.2,16.7,19.2,17.1
		L19.2,17.1z"/>
	<path id="XMLID_3455_" class="st7" d="M17.6,17.9c-0.3,0.3-0.7,0.8-0.5,1.4c0.6-0.1,0.8-0.5,1.2-0.9c0.1-0.1,0.3-0.3,0.4-0.3
		c0.1,0,0.3,0.2,0.5,0.3c0.2,0.1,0.3,0.2,0.4,0.3c0.3,0.2,0.9,0.4,1.1,0.4c-0.1-0.4-0.8-1.3-0.8-1.4c0.4-0.1,1-0.3,1.5-0.2
		c1,0.1,2.1,1.4,2.2,2.7c0.1,0.9-0.2,1.6-0.5,2c-0.6,1-1.6,1.8-3.2,2c-0.8,0.1-1.5,0-2.2-0.2c-1.2-0.4-2.2-1.2-2.6-2.5
		c-0.2-0.8,0-1.6,0.2-2.1c0.2-0.3,0.5-0.8,0.8-1.1c0.1-0.1,0.2-0.3,0.3-0.3c0.1,0,0.3,0,0.4,0C17.1,18,17.3,17.9,17.6,17.9
		L17.6,17.9z"/>
	<path id="XMLID_3454_" class="st6" d="M45,17.8c-0.1,0.6-0.4,0.8-0.6,1.3c0,0.1,0.3,0.1,0.2,0.2c-0.7,1.8-2.4,2.4-3.3,4
		c-0.5,1-0.9,2-1.2,2.9c-0.3,1-0.4,1.9-0.7,2.8c-0.3,0.8-0.8,1.3-1.1,2c-0.2,0.5-0.3,1-0.2,1.4c0.4-0.1,0.8-0.1,1.1-0.1
		c1.5,0,2.7,0.6,3.2,1.5c0.2-0.3,0.4-0.6,0.6-0.9c0.2-0.6,0.2-1.2,0.4-1.8c0.2-0.7,0.6-1.1,0.9-1.6c0.8-1.3,1.4-2.6,1.8-4.3
		c0.5-1.8-0.4-3.5,0.4-5.2c0.1-0.1,0.3,0.2,0.3,0c0.1-0.4,0.1-0.8,0.4-1.3C46.6,18.3,45.7,17.9,45,17.8L45,17.8z"/>
	<path id="XMLID_3453_" class="st7" d="M28,25.2c0.4-0.4,1-1,1.6-1.4c0.5-0.3,1.2-0.7,1.5-0.3c0.2,0.2,0.9,2.8,0.6,3.7
		c-0.4,1.3-1.9,1.1-2.8,0.9c-0.3-0.1-1.6-0.3-1.8-0.5c-0.3-0.3-0.1-0.8,0-1.2C27.4,26,27.6,25.6,28,25.2L28,25.2z"/>
	<path id="XMLID_3452_" class="st7" d="M33.2,23.5c0.1,0.9,0,2.2,0,2.5c-0.4,0.3-0.8,0.6-1.2,0.6c0-0.8-0.1-1.2-0.2-1.8
		c-0.1-0.5-0.2-0.8-0.3-1.2C32,23.4,32.6,23.4,33.2,23.5L33.2,23.5z"/>
	<path id="XMLID_3451_" class="st7" d="M28.6,28.3c0.5,0.1,1,0.2,1.6,0.2c0,0.3-0.2,1-0.6,1.2c-0.1,0.1-1.9,0.1-2.5,0
		c-0.2-0.6-0.1-1.2,0.1-1.7C27.7,28.1,28.2,28.2,28.6,28.3L28.6,28.3z"/>
	<path id="XMLID_3450_" class="st7" d="M33.4,25.9c0-0.3,0-0.8,0-1.3c0-0.4,0-0.7,0-1.1c0-0.2,0.5-0.2,0.6-0.2c0.1,0,0.5,0,0.6,0.2
		c0.1,0.2,0.2,1.2,0.2,1.6C34.4,25.6,33.8,25.9,33.4,25.9L33.4,25.9z"/>
	<path id="XMLID_3449_" class="st7" d="M29.5,29.9c0.1,0.5-0.3,1-0.8,1.4c-0.5,0-1-0.1-1.6-0.1c-0.2-0.4-0.4-0.9-0.1-1.2
		c0.2-0.2,0.8,0,1.1,0C28.7,30,29.2,29.9,29.5,29.9L29.5,29.9z"/>
	<path id="XMLID_3448_" class="st7" d="M28.5,31.5c0,0.3-0.4,1.4-0.9,1.2c-0.5-0.2-0.3-0.9-0.4-1.3C27.7,31.4,28.1,31.4,28.5,31.5
		L28.5,31.5z"/>
	<path id="XMLID_3447_" class="st7" d="M35,24.9c0-0.5-0.1-0.8-0.1-1.3c0.3,0,1.2-0.1,1.3,0.4C36.2,24.5,35.3,24.8,35,24.9L35,24.9z
		"/>
	<path id="XMLID_3446_" class="st7" d="M19.5,33.8c0.1,0.4,0.3,1,0.4,1.5c-0.3-0.1-0.7-0.4-1-0.5c-0.1-0.3,0.1-0.4,0.2-0.6
		C19.3,34.1,19.4,33.9,19.5,33.8L19.5,33.8z"/>
	<path id="XMLID_3445_" class="st8" d="M17.3,34.2c-2,0.3-3.2,1.4-4.1,2.6c-0.1,0.1,0.1-0.1,0.1-0.1c0.9-1,2.1-1.9,4-2.1
		C17.4,34.5,17.4,34.3,17.3,34.2L17.3,34.2z"/>
	<path id="XMLID_3444_" class="st7" d="M13.8,43.4c-0.4,0.1-1,0.2-1.5,0.2c-0.1-0.1,0.1-0.1,0.1-0.2c0.1-0.1,0.3-0.6,0.6-0.6
		C13.2,42.9,13.5,43.3,13.8,43.4L13.8,43.4z"/>
	<path id="XMLID_3443_" class="st7" d="M27,36c-0.4-0.2-0.6-0.6-0.9-0.8c0.4-0.3,0.5-1.1,1.1-1c0.1,0.3,0.5,0.3,0.5,0.7
		C28.5,35.2,27.3,35.7,27,36L27,36z"/>
	<path id="XMLID_3442_" class="st7" d="M28.7,37.4c-0.4-0.2-0.6-0.6-0.9-0.8c0.4-0.3,0.4-1.1,1.1-1c0,0.1,0.1,0.1,0.1,0.3
		c0.1,0,0.2,0,0.3,0.1c0.1,0.4,0.5,0.3,0.4,0.6C29.7,36.9,28.9,37.1,28.7,37.4L28.7,37.4z"/>
	<path id="XMLID_3441_" class="st7" d="M25.6,37c0.1,0.2,0,0.6,0,0.8c-0.5,0.3-1-0.2-1.5-0.4c-0.4-0.2-0.8-0.3-1.1-0.5
		c0.5-0.3,1.2-0.6,2-0.5c0.3-0.3,0.7-0.6,1-0.9c0.1,0,0.6,0.4,0.6,0.5C26.6,36.2,25.7,36.9,25.6,37L25.6,37z"/>
	<path id="XMLID_3440_" class="st7" d="M28,37.7c-0.3,0.3-0.5,0.6-0.8,0.9c0.1,1-0.5,2.4-1.2,3c-1.3,1.3-3.7-0.4-2.6-2.1
		c0.4-0.7,1.8-1.4,2.7-1.5c0.2,0,0.4,0,0.5,0c0.3-0.1,0.6-0.6,0.9-0.7c0,0,0.1-0.1,0.1-0.1C27.7,37.2,27.8,37.5,28,37.7L28,37.7z"/>
	<path id="XMLID_3437_" class="st7" d="M36.2,27.4c0.3-0.5-0.5-1.1-0.9-0.5C35,27.5,35.9,27.9,36.2,27.4L36.2,27.4z M36.8,26
		c0.1,0.3,0.1,0.7,0.2,1c0.1,0.2,0.8-0.1,0.9,0c0.1,0.1-0.1,1-0.1,1.2c-0.2,1.1-0.7,2.5-1.9,3.5c-1.6,1.5-3.3,1.9-4.7,2.2
		c-0.3,0.8-0.5,1.6-0.9,2.4c-0.2-0.7-0.4-1.4-0.7-2.1c-0.6-0.2-1.3-0.4-1.9-0.6c0.8-0.2,1.6-0.4,2.3-0.7c0.2-1.6,0.4-3.2,1.7-4.8
		C33.3,26.4,35.2,26.1,36.8,26L36.8,26z"/>
	<path id="XMLID_3436_" class="st7" d="M11.3,21.1c-0.1,0.3,0.2,0.6,0.4,0.4c0.1,0.4,0.3,0.8,0.4,1.2c-0.1,0.1-0.5,0.1-0.6,0.3
		c0,0.3,0.2,0.6,0.3,0.9c-0.9,0.4-1.4,1.2-1.2,2.1c0.3,1.2,2.7,7.4,3.1,8.5c0.7-0.6,2.6-1.6,5.5-1.6c-0.4-1.2-2.7-7.7-3.2-8.8
		c-0.4-0.9-1.3-1.2-2.3-0.9c-0.1-0.3-0.2-0.7-0.4-0.9c-0.2-0.1-0.4,0.1-0.6,0.2c-0.2-0.4-0.3-0.9-0.5-1.3c0.3-0.1,1.8-1.1,1.7-1.3
		C13.9,19.7,11.8,20.8,11.3,21.1L11.3,21.1z"/>
	<path id="XMLID_3435_" class="st7" d="M34.4,17.1c1.7-0.3,1.9,2.3,0.2,2.3C33.2,19.4,33,17.3,34.4,17.1L34.4,17.1z"/>
	<path id="XMLID_3434_" class="st7" d="M37,17.1c0.8-0.1,1.5,0.5,1.4,1.4c-0.1,0.5-0.6,0.9-1.2,0.9C35.7,19.4,35.7,17.3,37,17.1
		L37,17.1z"/>
	<path id="XMLID_3433_" class="st7" d="M39.6,17.1c0.7-0.1,1.4,0.4,1.4,1.1c0,1.7-2.6,1.5-2.3-0.2C38.7,17.5,39.1,17.2,39.6,17.1
		L39.6,17.1z"/>
	<path id="XMLID_3432_" class="st7" d="M42.2,17.1c0.6-0.1,1.1,0.2,1.3,0.6c0.3,0.7-0.2,1.6-1,1.7c-0.7,0-1.3-0.5-1.2-1.3
		C41.4,17.5,41.8,17.2,42.2,17.1L42.2,17.1z"/>
	<path id="XMLID_3431_" class="st7" d="M35.6,19.4c1.4-0.3,1.9,1.6,0.8,2.2c-0.8,0.4-1.7-0.2-1.7-1c0-0.3,0.2-0.6,0.2-0.6
		C35,19.7,35.3,19.5,35.6,19.4L35.6,19.4z"/>
	<path id="XMLID_3430_" class="st7" d="M38.2,19.4c0.9-0.2,1.7,0.7,1.3,1.6c-0.6,1.3-2.8,0.4-2.1-1C37.5,19.9,37.8,19.5,38.2,19.4
		L38.2,19.4z"/>
	<path id="XMLID_3429_" class="st7" d="M40.9,19.4c1.5-0.3,1.8,1.7,0.7,2.2c-0.8,0.4-1.8-0.3-1.7-1.2C40.1,19.8,40.4,19.5,40.9,19.4
		L40.9,19.4z"/>
	<path id="XMLID_3428_" class="st7" d="M37.1,21.7c0.6,0,1.2,0.4,1.2,1.2c0,0.5-0.4,0.9-0.6,1C37,24.3,36.1,23.8,36,23
		C35.9,22.4,36.3,21.8,37.1,21.7L37.1,21.7z"/>
	<path id="XMLID_3427_" class="st7" d="M39.7,21.7c0.6,0,1.2,0.3,1.2,1c0.1,0.9-0.7,1.6-1.6,1.3C38.3,23.6,38.5,21.8,39.7,21.7
		L39.7,21.7z"/>
	<path id="XMLID_3426_" class="st7" d="M38.4,24.1c0.7-0.1,1.4,0.5,1.3,1.4c-0.1,0.5-0.6,0.8-0.9,0.9c-0.8,0.1-1.7-0.7-1.3-1.7
		C37.5,24.5,37.8,24.1,38.4,24.1L38.4,24.1z"/>
	<path id="XMLID_3382_" class="st7" d="M26.7,30.9c0,0-0.4,0-0.6-0.1c-0.3-0.1-0.4-0.2-0.7-0.5c0.3,0.5,0.3,1.1,0.2,1.5
		c-0.6-0.3-0.9-0.8-1.2-1.5c-0.3,0.8-0.6,1.4-1.1,1.7c-0.3-0.5-0.2-1.3,0.2-2c-0.5,0.1-1.2,0.4-1.9,0.2c0-0.4,0.9-0.9,1.2-0.9
		c-0.6,0-1.3-0.5-1.3-0.5c-0.5,0.2-1.1,0.6-1.4,1.4c-0.5,1.2-0.1,2.2,0.1,3.3c0.2,0.7,0.5,2.4,1.5,2.7c0.5,0.2,1.1,0,1.5-0.2
		c0.9-0.4,1.7-1,2.5-1.7c0.5-0.4,1-0.9,1.2-1.7C27,31.7,26.7,30.9,26.7,30.9L26.7,30.9z"/>
	<path id="XMLID_3381_" class="st7" d="M21.1,33.4c-0.1,0-0.2-0.1-0.2-0.2c0-0.1,0.1-0.2,0.2-0.2c0.1,0,0.2,0.1,0.2,0.2
		C21.3,33.4,21.2,33.4,21.1,33.4L21.1,33.4z"/>
	<path id="XMLID_3376_" class="st7" d="M21.9,35.2c-0.2,0-0.3-0.1-0.3-0.3c0-0.2,0.1-0.3,0.3-0.3c0.2,0,0.3,0.1,0.3,0.3
		C22.3,35,22.1,35.2,21.9,35.2L21.9,35.2z"/>
	<path id="XMLID_3375_" class="st7" d="M23.6,34.7c-0.2,0-0.4-0.2-0.4-0.4c0-0.2,0.2-0.4,0.4-0.4c0.2,0,0.4,0.2,0.4,0.4
		C24,34.5,23.8,34.7,23.6,34.7L23.6,34.7z"/>
	<path id="XMLID_3284_" class="st7" d="M26.7,30.7c-0.4-0.6-1.1-1.2-2.1-1.4c0,0,0,0,0,0l0.3-0.7l-0.4-0.2l-0.2,0.9c0,0,0,0,0,0
		c-0.8-0.6-1.9-0.7-2.6-0.5c0.6,0.3,1.3,0.5,1.8,0.6c-0.5,0.2-1,0.3-1.3,0.7c0.6,0.1,1.3,0,1.7-0.3c-0.3,0.6-0.6,1.4-0.4,1.8
		c0.3-0.4,0.7-0.9,0.9-1.6c0.3,0.4,0.5,1,1,1.3c0-0.5-0.1-1-0.3-1.4C25.5,30.2,26.1,30.6,26.7,30.7L26.7,30.7z"/>
	<path id="XMLID_3264_" class="st7" d="M10.6,19.7c-0.2,0-0.3-0.1-0.3-0.3c0-0.2,0.1-0.3,0.3-0.3c0.2,0,0.3,0.1,0.3,0.3
		C10.9,19.6,10.7,19.7,10.6,19.7L10.6,19.7z M9,21.5c-0.5,0-0.9-0.4-0.9-0.9c0-0.5,0.4-0.9,0.9-0.9c0.5,0,0.9,0.4,0.9,0.9
		C9.9,21.1,9.5,21.5,9,21.5L9,21.5z M8.1,18.8c0-0.3,0.2-0.5,0.5-0.5c0.3,0,0.5,0.2,0.5,0.5c0,0.3-0.2,0.5-0.5,0.5
		C8.3,19.3,8.1,19.1,8.1,18.8L8.1,18.8z M12.4,19.5c0-0.3,0.2-0.5,0.5-0.5c0.2,0,0.4,0.1,0.5,0.3l2.4-1.6l-3.3,0.2
		c-0.1,0.4-0.4,0.8-0.9,0.8c-0.4,0-0.8-0.3-0.9-0.7l-3.9,0.3l1.4,4.5l4.4-3C12.4,19.8,12.4,19.6,12.4,19.5L12.4,19.5z"/>
	<path id="XMLID_3261_" class="st6" d="M31.8,36.5C31.8,36.5,31.9,36.5,31.8,36.5C31.8,36.5,31.8,36.5,31.8,36.5L31.8,36.5z"/>
	<path id="XMLID_3189_" class="st6" d="M31.9,37.6C32,37.6,32,37.6,31.9,37.6C31.9,37.5,31.9,37.6,31.9,37.6L31.9,37.6z"/>
	<path id="XMLID_3188_" class="st6" d="M13.3,35c-0.8-2.6-3.4-9.9-4.4-10.8c-0.4-0.3-0.9-0.5-1.2-0.9c-0.4-0.5-1.6-3.9-1.7-4.7
		c-0.5-0.3-1.6,0.1-1.9,0.6c0.3,0.8,1.4,3.9,1.5,4.3c0.2,0.8-0.3,1.3-0.4,1.9c-0.1,0.5,0,1.1,0.1,1.6c0.7,2.8,4.6,10.1,5.4,13.1
		c0,0,0.1,0,0.1,0c0-0.9,0.3-1.8,0.5-2.3C11.7,36.7,12.4,35.8,13.3,35L13.3,35z"/>
	<path id="XMLID_3187_" class="st6" d="M18.6,34.7c-0.1-0.6-0.5-1-1.1-1.1c-0.4-0.1-1.1,0.1-1.5,0.3c-2.2,0.7-3.7,2.3-4.3,4.1
		c-0.3,0.7-0.5,1.7-0.4,2.6c0,0.4,0.1,0.9,0.2,1.3c0.1,0.4,0.6,0.6,0.9,0.7c0.7,0.2,1.4-0.4,1.6-1c0.1-0.3,0-0.7,0-1.1
		c-0.1-2,1.2-3.6,3-4.2c0.4-0.1,0.7-0.1,1.1-0.3C18.4,35.9,18.7,35.3,18.6,34.7L18.6,34.7z"/>
	<path id="XMLID_3186_" class="st6" d="M17.3,34.6c-1.9,0.2-3.1,1.1-4,2.1c0,0-0.2,0.2-0.1,0.1c0.9-1.2,2.1-2.3,4.1-2.6
		C17.4,34.3,17.4,34.5,17.3,34.6L17.3,34.6z"/>
	<path id="XMLID_3092_" class="st7" d="M15.8,13.3c2-3.6,4.2-5.4,7-6.1c2.6-0.6,5.9-0.2,8.9,1.6c2,1.2,2.9,3,3.4,4.5
		c0,0.2,0.2,0.8,0.3,0.6c0.3-0.6-0.4-2.3-1.1-3.3c-1.6-2.5-5.3-3.9-7.8-4.1c-4-0.3-8,0.8-10.5,5.7c-0.2,0.4-0.5,0.8-0.4,1.2
		C15.6,13.4,15.7,13.4,15.8,13.3L15.8,13.3z M12.6,16.2c0.8-0.9,1.6-1.5,2.3-2.5c-0.3-0.8-0.6-2.5,0.7-4.6c3.3-5,8-6,12.6-4.7
		c8.2,2.3,8.6,9.3,7.8,10.2c-0.3,0.3-1,0.4-1.3,0.2c-0.3-0.2-0.6-1.6-3.3-3.8c-2.5-2.1-5.9-2.5-8.1-2c-1.3,0.3-2.3,0.9-3.4,1.9
		c-1.3,1.2-2.6,3.6-4.3,3.4c-0.6,0.9-1,1-1.7,2C13.6,16.2,12.9,16.3,12.6,16.2L12.6,16.2z"/>
	<path id="XMLID_3091_" class="st7" d="M24.9,38.2c-1,0.5-2.1,1-2.1,2.3c0,1.4,1.3,2.6,2.8,1.9c1-0.4,1.3-1.5,1.8-2.5
		c1,0.5,1.8,2.1,1.1,3.7C28,44.3,27,45,26.2,45.2c-0.7,0.1-1.6,0-2.5,0c-1.7,0-3.2,0-5,0c-0.8,0-1.8,0.1-2.4,0
		c-0.3-0.1-0.9-0.5-1.1-0.7c-1.4-1.5-1.3-5.2,0.1-6.6c0.8-0.9,2.3-1.4,3.7-1.4C21.5,36.4,23.2,37.2,24.9,38.2L24.9,38.2z"/>
	<path id="XMLID_3011_" class="st7" d="M39.6,37.1c0.5-2.3-1.3-3.7-3.6-3.6c2.1-1.2,6.3-1.4,6.4,1.8c0,1.3-0.7,2.7-1.3,3.6
		c-1.2,1.9-3.2,3.5-5.3,4.6c-1.6,0.8-4.7,1.8-6.2,0.2c-0.9-0.9-0.8-2.9-0.1-4.1c2.3,0.2,3.7,1.1,4.3,3c0.6-2.3-1.5-3.8-4-3.5
		c0.2-0.4,0.4-0.8,0.7-1.2c0.2-0.3,0.6-0.9,0.9-1c0.4-0.1,0.9-0.1,1.2,0c2,0.1,3.6,1.3,4.1,3c0.6-2.9-2.3-4.1-4.9-3.3c0,0,0,0,0,0
		c0.6-0.7,1.4-1.4,2.2-2c0.3-0.2,0.6-0.5,0.9-0.5c0.5-0.1,1.3,0.1,1.7,0.2C38.2,34.7,39.2,35.6,39.6,37.1L39.6,37.1z"/>
</g>
</svg>
